<svg viewBox="0 0 20 20" width="20" height="20" fill="currentColor" class="x14rh7hd x1lliihq x1tzjh5l x1k90msu x2h7rmj x1qfuztq" style="--x-color: var(--primary-icon);" xmlns="http://www.w3.org/2000/svg"><path fill-rule="evenodd" d="M17.99.93a1.75 1.75 0 0 0-2.48.005l-9.148 9.224a1.25 1.25 0 0 0-.362.88v2.21c0 .415.336.75.75.75h2.212c.33 0 .646-.13.88-.362l9.223-9.148a1.75 1.75 0 0 0 .005-2.48L17.99.93zm-1.415 1.06a.25.25 0 0 1 .355 0l1.08 1.08a.25.25 0 0 1-.001.353L16.742 4.68l-1.423-1.423 1.256-1.267z" clip-rule="evenodd"></path><path d="M11.238 1H9.694C7.856 1 6.4 1 5.26 1.153c-1.172.158-2.121.49-2.87 1.238-.748.749-1.08 1.698-1.238 2.87C1 6.401 1 7.856 1 9.694v.612c0 1.838 0 3.294.153 4.433.158 1.172.49 2.121 1.238 2.87.749.748 1.698 1.08 2.87 1.238C6.401 19 7.856 19 9.694 19h.612c1.838 0 3.294 0 4.433-.153 1.172-.158 2.121-.49 2.87-1.238.748-.749 1.08-1.698 1.238-2.87.153-1.14.153-2.595.153-4.433V8.764a.75.75 0 0 0-1.5 0v1.487c0 1.907-.002 3.261-.14 4.29-.135 1.005-.389 1.585-.812 2.008-.423.423-1.003.677-2.009.812-1.027.138-2.382.14-4.289.14h-.5c-1.907 0-3.261-.002-4.29-.14-1.005-.135-1.585-.389-2.008-.812-.423-.423-.677-1.003-.812-2.009-.138-1.027-.14-2.382-.14-4.289v-.5c0-1.907.002-3.261.14-4.29.135-1.005.389-1.585.812-2.008.423-.423 1.003-.677 2.009-.812 1.028-.138 2.382-.14 4.289-.14h1.488a.75.75 0 0 0 0-1.5z"></path></svg>